{
    "asset" : {
        "generator" : "Khronos glTF Blender I/O v1.8.19",
        "version" : "2.0"
    },
    "scene" : 0,
    "scenes" : [
        {
            "name" : "Scene",
            "nodes" : [
                1
            ]
        }
    ],
    "nodes" : [
        {
            "mesh" : 0,
            "name" : "HouseExterior",
            "scale" : [
                2,
                2,
                2
            ],
            "translation" : [
                0,
                7.708488737989683e-06,
                47.31437301635742
            ]
        },
        {
            "children" : [
                0
            ],
            "name" : "WitchHouse",
            "rotation" : [
                0.7071068286895752,
                0,
                0,
                0.7071067094802856
            ],
            "scale" : [
                0.009999999776482582,
                0.009999999776482582,
                0.009999999776482582
            ],
            "translation" : [
                0,
                0.47314372658729553,
                0
            ]
        }
    ],
    "materials" : [
        {
            "doubleSided" : true,
            "name" : "TheMaterial",
            "pbrMetallicRoughness" : {
                "baseColorTexture" : {
                    "index" : 0
                },
                "metallicFactor" : 0,
                "roughnessFactor" : 0.5527864098548889
            }
        },
        {
            "doubleSided" : true,
            "name" : "Glass",
            "pbrMetallicRoughness" : {
                "baseColorFactor" : [
                    0.5,
                    0.5,
                    0.5,
                    1
                ],
                "metallicFactor" : 0,
                "roughnessFactor" : 0.5527864098548889
            }
        }
    ],
    "meshes" : [
        {
            "name" : "Scene.014",
            "primitives" : [
                {
                    "attributes" : {
                        "POSITION" : 0,
                        "NORMAL" : 1,
                        "TEXCOORD_0" : 2,
                        "TEXCOORD_1" : 3
                    },
                    "indices" : 4,
                    "material" : 0
                },
                {
                    "attributes" : {
                        "POSITION" : 5,
                        "NORMAL" : 6,
                        "TEXCOORD_0" : 7,
                        "TEXCOORD_1" : 8
                    },
                    "indices" : 9,
                    "material" : 1
                }
            ]
        }
    ],
    "textures" : [
        {
            "sampler" : 0,
            "source" : 0
        }
    ],
    "images" : [
        {
            "bufferView" : 5,
            "mimeType" : "image/png",
            "name" : "TheMaterialBase"
        }
    ],
    "accessors" : [
        {
            "bufferView" : 0,
            "componentType" : 5126,
            "count" : 18077,
            "max" : [
                855.564453125,
                350.68658447265625,
                67.0615234375
            ],
            "min" : [
                -521.9146728515625,
                -352.4609680175781,
                -568.1435546875
            ],
            "type" : "VEC3"
        },
        {
            "bufferView" : 1,
            "componentType" : 5126,
            "count" : 18077,
            "type" : "VEC3"
        },
        {
            "bufferView" : 2,
            "componentType" : 5126,
            "count" : 18077,
            "type" : "VEC2"
        },
        {
            "bufferView" : 3,
            "componentType" : 5126,
            "count" : 18077,
            "type" : "VEC2"
        },
        {
            "bufferView" : 4,
            "componentType" : 5123,
            "count" : 37197,
            "type" : "SCALAR"
        },
        {
            "bufferView" : 6,
            "componentType" : 5126,
            "count" : 23,
            "max" : [
                806.2943725585938,
                -50.3389778137207,
                -138.496826171875
            ],
            "min" : [
                777.4879760742188,
                -171.9420166015625,
                -319.0328674316406
            ],
            "type" : "VEC3"
        },
        {
            "bufferView" : 7,
            "componentType" : 5126,
            "count" : 23,
            "type" : "VEC3"
        },
        {
            "bufferView" : 8,
            "componentType" : 5126,
            "count" : 23,
            "type" : "VEC2"
        },
        {
            "bufferView" : 9,
            "componentType" : 5126,
            "count" : 23,
            "type" : "VEC2"
        },
        {
            "bufferView" : 10,
            "componentType" : 5123,
            "count" : 30,
            "type" : "SCALAR"
        }
    ],
    "bufferViews" : [
        {
            "buffer" : 0,
            "byteLength" : 216924,
            "byteOffset" : 0
        },
        {
            "buffer" : 0,
            "byteLength" : 216924,
            "byteOffset" : 216924
        },
        {
            "buffer" : 0,
            "byteLength" : 144616,
            "byteOffset" : 433848
        },
        {
            "buffer" : 0,
            "byteLength" : 144616,
            "byteOffset" : 578464
        },
        {
            "buffer" : 0,
            "byteLength" : 74394,
            "byteOffset" : 723080
        },
        {
            "buffer" : 0,
            "byteLength" : 271169,
            "byteOffset" : 797476
        },
        {
            "buffer" : 0,
            "byteLength" : 276,
            "byteOffset" : 1068648
        },
        {
            "buffer" : 0,
            "byteLength" : 276,
            "byteOffset" : 1068924
        },
        {
            "buffer" : 0,
            "byteLength" : 184,
            "byteOffset" : 1069200
        },
        {
            "buffer" : 0,
            "byteLength" : 184,
            "byteOffset" : 1069384
        },
        {
            "buffer" : 0,
            "byteLength" : 60,
            "byteOffset" : 1069568
        }
    ],
    "samplers" : [
        {
            "magFilter" : 9729,
            "minFilter" : 9987
        }
    ],
    "buffers" : [
        {
            "byteLength" : 1069628,
            "uri" : "data:application/octet-stream;base64,"
        }
    ]
}
