{
    "asset" : {
        "generator" : "Khronos glTF Blender I/O v1.8.19",
        "version" : "2.0"
    },
    "extensionsUsed" : [
        "KHR_materials_unlit"
    ],
    "scene" : 0,
    "scenes" : [
        {
            "name" : "Scene",
            "nodes" : [
                0,
                1,
                2,
                3,
                4,
                5,
                6,
                7,
                8
            ]
        }
    ],
    "nodes" : [
        {
            "mesh" : 0,
            "name" : "MathRoom"
        },
        {
            "mesh" : 1,
            "name" : "Curtains"
        },
        {
            "mesh" : 2,
            "name" : "Blackboard"
        },
        {
            "mesh" : 3,
            "name" : "Environment",
            "rotation" : [
                0,
                0.024876680225133896,
                0,
                0.9996905326843262
            ],
            "scale" : [
                139.20423889160156,
                139.20423889160156,
                139.20423889160156
            ],
            "translation" : [
                0,
                -1.5447518825531006,
                4.291534423828125e-06
            ]
        },
        {
            "mesh" : 4,
            "name" : "Cuboid_Hitbox",
            "translation" : [
                0.6713757514953613,
                1.8195385932922363,
                2.9865732192993164
            ]
        },
        {
            "mesh" : 5,
            "name" : "Cylinder_Hitbox",
            "translation" : [
                -0.766788125038147,
                1.2362513542175293,
                2.9865732192993164
            ]
        },
        {
            "mesh" : 6,
            "name" : "Parallelepiped_Hitbox",
            "translation" : [
                -0.7778215408325195,
                1.8081941604614258,
                2.9865732192993164
            ]
        },
        {
            "mesh" : 7,
            "name" : "Box_Hitbox",
            "translation" : [
                -0.05746054649353027,
                1.8081941604614258,
                2.9865732192993164
            ]
        },
        {
            "mesh" : 8,
            "name" : "Pyramid_Hitbox",
            "translation" : [
                0.6713757514953613,
                1.2631410360336304,
                2.9865732192993164
            ]
        }
    ],
    "materials" : [
        {
            "doubleSided" : true,
            "extensions" : {
                "KHR_materials_unlit" : {}
            },
            "name" : "Room",
            "pbrMetallicRoughness" : {
                "baseColorTexture" : {
                    "index" : 0
                },
                "metallicFactor" : 0,
                "roughnessFactor" : 0.9
            }
        },
        {
            "doubleSided" : true,
            "extensions" : {
                "KHR_materials_unlit" : {}
            },
            "name" : "Curtains",
            "pbrMetallicRoughness" : {
                "baseColorTexture" : {
                    "index" : 1
                },
                "metallicFactor" : 0,
                "roughnessFactor" : 0.9
            }
        },
        {
            "doubleSided" : true,
            "extensions" : {
                "KHR_materials_unlit" : {}
            },
            "name" : "Material.008",
            "pbrMetallicRoughness" : {
                "baseColorTexture" : {
                    "index" : 2
                },
                "metallicFactor" : 0,
                "roughnessFactor" : 0.9
            }
        },
        {
            "doubleSided" : true,
            "name" : "Material",
            "pbrMetallicRoughness" : {
                "baseColorTexture" : {
                    "index" : 3
                },
                "metallicFactor" : 0,
                "roughnessFactor" : 0.5
            }
        },
        {
            "alphaMode" : "BLEND",
            "doubleSided" : true,
            "name" : "Transprarent",
            "pbrMetallicRoughness" : {
                "baseColorFactor" : [
                    0,
                    0,
                    0,
                    0
                ],
                "metallicFactor" : 0,
                "roughnessFactor" : 0.5
            }
        }
    ],
    "meshes" : [
        {
            "name" : "Cube.001",
            "primitives" : [
                {
                    "attributes" : {
                        "POSITION" : 0,
                        "NORMAL" : 1,
                        "TEXCOORD_0" : 2
                    },
                    "indices" : 3,
                    "material" : 0
                }
            ]
        },
        {
            "name" : "Cube.003",
            "primitives" : [
                {
                    "attributes" : {
                        "POSITION" : 4,
                        "NORMAL" : 5,
                        "TEXCOORD_0" : 6
                    },
                    "indices" : 7,
                    "material" : 1
                }
            ]
        },
        {
            "name" : "Cube.004",
            "primitives" : [
                {
                    "attributes" : {
                        "POSITION" : 8,
                        "NORMAL" : 9,
                        "TEXCOORD_0" : 10
                    },
                    "indices" : 11,
                    "material" : 2
                }
            ]
        },
        {
            "name" : "Sphere",
            "primitives" : [
                {
                    "attributes" : {
                        "POSITION" : 12,
                        "NORMAL" : 13,
                        "TEXCOORD_0" : 14
                    },
                    "indices" : 15,
                    "material" : 3
                }
            ]
        },
        {
            "name" : "Cube",
            "primitives" : [
                {
                    "attributes" : {
                        "POSITION" : 16,
                        "NORMAL" : 17,
                        "TEXCOORD_0" : 18
                    },
                    "indices" : 19,
                    "material" : 4
                }
            ]
        },
        {
            "name" : "Cube.005",
            "primitives" : [
                {
                    "attributes" : {
                        "POSITION" : 20,
                        "NORMAL" : 21,
                        "TEXCOORD_0" : 22
                    },
                    "indices" : 19,
                    "material" : 4
                }
            ]
        },
        {
            "name" : "Cube.006",
            "primitives" : [
                {
                    "attributes" : {
                        "POSITION" : 23,
                        "NORMAL" : 24,
                        "TEXCOORD_0" : 25
                    },
                    "indices" : 19,
                    "material" : 4
                }
            ]
        },
        {
            "name" : "Cube.007",
            "primitives" : [
                {
                    "attributes" : {
                        "POSITION" : 26,
                        "NORMAL" : 27,
                        "TEXCOORD_0" : 28
                    },
                    "indices" : 19,
                    "material" : 4
                }
            ]
        },
        {
            "name" : "Cube.008",
            "primitives" : [
                {
                    "attributes" : {
                        "POSITION" : 29,
                        "NORMAL" : 30,
                        "TEXCOORD_0" : 31
                    },
                    "indices" : 19,
                    "material" : 4
                }
            ]
        }
    ],
    "textures" : [
        {
            "sampler" : 0,
            "source" : 0
        },
        {
            "sampler" : 0,
            "source" : 1
        },
        {
            "sampler" : 0,
            "source" : 2
        },
        {
            "sampler" : 0,
            "source" : 3
        }
    ],
    "images" : [
        {
            "bufferView" : 4,
            "mimeType" : "image/jpeg",
            "name" : "BakeTarget_02"
        },
        {
            "bufferView" : 9,
            "mimeType" : "image/jpeg",
            "name" : "CurtainBake"
        },
        {
            "bufferView" : 14,
            "mimeType" : "image/jpeg",
            "name" : "Blackboard"
        },
        {
            "bufferView" : 19,
            "mimeType" : "image/jpeg",
            "name" : "air_museum_playground_4k"
        }
    ],
    "accessors" : [
        {
            "bufferView" : 0,
            "componentType" : 5126,
            "count" : 2442,
            "max" : [
                4.163397312164307,
                3.080256462097168,
                3.1633973121643066
            ],
            "min" : [
                -4.163397312164307,
                0,
                -3.1633973121643066
            ],
            "type" : "VEC3"
        },
        {
            "bufferView" : 1,
            "componentType" : 5126,
            "count" : 2442,
            "type" : "VEC3"
        },
        {
            "bufferView" : 2,
            "componentType" : 5126,
            "count" : 2442,
            "type" : "VEC2"
        },
        {
            "bufferView" : 3,
            "componentType" : 5123,
            "count" : 4518,
            "type" : "SCALAR"
        },
        {
            "bufferView" : 5,
            "componentType" : 5126,
            "count" : 7920,
            "max" : [
                -3.7816574573516846,
                2.1301915645599365,
                2.4885194301605225
            ],
            "min" : [
                -4.035752773284912,
                0.9293868541717529,
                -1.6301053762435913
            ],
            "type" : "VEC3"
        },
        {
            "bufferView" : 6,
            "componentType" : 5126,
            "count" : 7920,
            "type" : "VEC3"
        },
        {
            "bufferView" : 7,
            "componentType" : 5126,
            "count" : 7920,
            "type" : "VEC2"
        },
        {
            "bufferView" : 8,
            "componentType" : 5123,
            "count" : 44856,
            "type" : "SCALAR"
        },
        {
            "bufferView" : 10,
            "componentType" : 5126,
            "count" : 12,
            "max" : [
                3.4707674980163574,
                2.0972087383270264,
                2.9866511821746826
            ],
            "min" : [
                -3.4553282260894775,
                0.900867760181427,
                2.9866511821746826
            ],
            "type" : "VEC3"
        },
        {
            "bufferView" : 11,
            "componentType" : 5126,
            "count" : 12,
            "type" : "VEC3"
        },
        {
            "bufferView" : 12,
            "componentType" : 5126,
            "count" : 12,
            "type" : "VEC2"
        },
        {
            "bufferView" : 13,
            "componentType" : 5123,
            "count" : 18,
            "type" : "SCALAR"
        },
        {
            "bufferView" : 15,
            "componentType" : 5126,
            "count" : 592,
            "max" : [
                0.7141975164413452,
                0.7155093550682068,
                0.7141969203948975
            ],
            "min" : [
                -0.7141965627670288,
                -0.00255009438842535,
                -0.7141960859298706
            ],
            "type" : "VEC3"
        },
        {
            "bufferView" : 16,
            "componentType" : 5126,
            "count" : 592,
            "type" : "VEC3"
        },
        {
            "bufferView" : 17,
            "componentType" : 5126,
            "count" : 592,
            "type" : "VEC2"
        },
        {
            "bufferView" : 18,
            "componentType" : 5123,
            "count" : 2880,
            "type" : "SCALAR"
        },
        {
            "bufferView" : 20,
            "componentType" : 5126,
            "count" : 24,
            "max" : [
                0.32563769817352295,
                0.2529792785644531,
                0.051346778869628906
            ],
            "min" : [
                -0.32563769817352295,
                -0.2529792785644531,
                -0.051346778869628906
            ],
            "type" : "VEC3"
        },
        {
            "bufferView" : 21,
            "componentType" : 5126,
            "count" : 24,
            "type" : "VEC3"
        },
        {
            "bufferView" : 22,
            "componentType" : 5126,
            "count" : 24,
            "type" : "VEC2"
        },
        {
            "bufferView" : 23,
            "componentType" : 5123,
            "count" : 36,
            "type" : "SCALAR"
        },
        {
            "bufferView" : 24,
            "componentType" : 5126,
            "count" : 24,
            "max" : [
                0.32563769817352295,
                0.2529792785644531,
                0.051346778869628906
            ],
            "min" : [
                -0.32563769817352295,
                -0.2529792785644531,
                -0.051346778869628906
            ],
            "type" : "VEC3"
        },
        {
            "bufferView" : 25,
            "componentType" : 5126,
            "count" : 24,
            "type" : "VEC3"
        },
        {
            "bufferView" : 26,
            "componentType" : 5126,
            "count" : 24,
            "type" : "VEC2"
        },
        {
            "bufferView" : 27,
            "componentType" : 5126,
            "count" : 24,
            "max" : [
                0.32563769817352295,
                0.2529792785644531,
                0.051346778869628906
            ],
            "min" : [
                -0.32563769817352295,
                -0.2529792785644531,
                -0.051346778869628906
            ],
            "type" : "VEC3"
        },
        {
            "bufferView" : 28,
            "componentType" : 5126,
            "count" : 24,
            "type" : "VEC3"
        },
        {
            "bufferView" : 29,
            "componentType" : 5126,
            "count" : 24,
            "type" : "VEC2"
        },
        {
            "bufferView" : 30,
            "componentType" : 5126,
            "count" : 24,
            "max" : [
                0.32563769817352295,
                0.2529792785644531,
                0.051346778869628906
            ],
            "min" : [
                -0.32563769817352295,
                -0.2529792785644531,
                -0.051346778869628906
            ],
            "type" : "VEC3"
        },
        {
            "bufferView" : 31,
            "componentType" : 5126,
            "count" : 24,
            "type" : "VEC3"
        },
        {
            "bufferView" : 32,
            "componentType" : 5126,
            "count" : 24,
            "type" : "VEC2"
        },
        {
            "bufferView" : 33,
            "componentType" : 5126,
            "count" : 24,
            "max" : [
                0.32563769817352295,
                0.2529792785644531,
                0.051346778869628906
            ],
            "min" : [
                -0.32563769817352295,
                -0.2529792785644531,
                -0.051346778869628906
            ],
            "type" : "VEC3"
        },
        {
            "bufferView" : 34,
            "componentType" : 5126,
            "count" : 24,
            "type" : "VEC3"
        },
        {
            "bufferView" : 35,
            "componentType" : 5126,
            "count" : 24,
            "type" : "VEC2"
        }
    ],
    "bufferViews" : [
        {
            "buffer" : 0,
            "byteLength" : 29304,
            "byteOffset" : 0
        },
        {
            "buffer" : 0,
            "byteLength" : 29304,
            "byteOffset" : 29304
        },
        {
            "buffer" : 0,
            "byteLength" : 19536,
            "byteOffset" : 58608
        },
        {
            "buffer" : 0,
            "byteLength" : 9036,
            "byteOffset" : 78144
        },
        {
            "buffer" : 0,
            "byteLength" : 1252561,
            "byteOffset" : 87180
        },
        {
            "buffer" : 0,
            "byteLength" : 95040,
            "byteOffset" : 1339744
        },
        {
            "buffer" : 0,
            "byteLength" : 95040,
            "byteOffset" : 1434784
        },
        {
            "buffer" : 0,
            "byteLength" : 63360,
            "byteOffset" : 1529824
        },
        {
            "buffer" : 0,
            "byteLength" : 89712,
            "byteOffset" : 1593184
        },
        {
            "buffer" : 0,
            "byteLength" : 50076,
            "byteOffset" : 1682896
        },
        {
            "buffer" : 0,
            "byteLength" : 144,
            "byteOffset" : 1732972
        },
        {
            "buffer" : 0,
            "byteLength" : 144,
            "byteOffset" : 1733116
        },
        {
            "buffer" : 0,
            "byteLength" : 96,
            "byteOffset" : 1733260
        },
        {
            "buffer" : 0,
            "byteLength" : 36,
            "byteOffset" : 1733356
        },
        {
            "buffer" : 0,
            "byteLength" : 60459,
            "byteOffset" : 1733392
        },
        {
            "buffer" : 0,
            "byteLength" : 7104,
            "byteOffset" : 1793852
        },
        {
            "buffer" : 0,
            "byteLength" : 7104,
            "byteOffset" : 1800956
        },
        {
            "buffer" : 0,
            "byteLength" : 4736,
            "byteOffset" : 1808060
        },
        {
            "buffer" : 0,
            "byteLength" : 5760,
            "byteOffset" : 1812796
        },
        {
            "buffer" : 0,
            "byteLength" : 455632,
            "byteOffset" : 1818556
        },
        {
            "buffer" : 0,
            "byteLength" : 288,
            "byteOffset" : 2274188
        },
        {
            "buffer" : 0,
            "byteLength" : 288,
            "byteOffset" : 2274476
        },
        {
            "buffer" : 0,
            "byteLength" : 192,
            "byteOffset" : 2274764
        },
        {
            "buffer" : 0,
            "byteLength" : 72,
            "byteOffset" : 2274956
        },
        {
            "buffer" : 0,
            "byteLength" : 288,
            "byteOffset" : 2275028
        },
        {
            "buffer" : 0,
            "byteLength" : 288,
            "byteOffset" : 2275316
        },
        {
            "buffer" : 0,
            "byteLength" : 192,
            "byteOffset" : 2275604
        },
        {
            "buffer" : 0,
            "byteLength" : 288,
            "byteOffset" : 2275796
        },
        {
            "buffer" : 0,
            "byteLength" : 288,
            "byteOffset" : 2276084
        },
        {
            "buffer" : 0,
            "byteLength" : 192,
            "byteOffset" : 2276372
        },
        {
            "buffer" : 0,
            "byteLength" : 288,
            "byteOffset" : 2276564
        },
        {
            "buffer" : 0,
            "byteLength" : 288,
            "byteOffset" : 2276852
        },
        {
            "buffer" : 0,
            "byteLength" : 192,
            "byteOffset" : 2277140
        },
        {
            "buffer" : 0,
            "byteLength" : 288,
            "byteOffset" : 2277332
        },
        {
            "buffer" : 0,
            "byteLength" : 288,
            "byteOffset" : 2277620
        },
        {
            "buffer" : 0,
            "byteLength" : 192,
            "byteOffset" : 2277908
        }
    ],
    "samplers" : [
        {
            "magFilter" : 9729,
            "minFilter" : 9987
        }
    ],
    "buffers" : [
        {
            "byteLength" : 2278100,
            "uri" : "data:application/octet-stream;base64,"
        }
    ]
}
