{
    "asset" : {
        "generator" : "Khronos glTF Blender I/O v1.8.19",
        "version" : "2.0"
    },
    "scene" : 0,
    "scenes" : [
        {
            "name" : "Scene",
            "nodes" : [
                5
            ]
        }
    ],
    "nodes" : [
        {
            "mesh" : 0,
            "name" : "Cube_0"
        },
        {
            "children" : [
                0
            ],
            "name" : "Cube.001"
        },
        {
            "name" : "Spot.002"
        },
        {
            "children" : [
                2
            ],
            "name" : "Spot.001"
        },
        {
            "children" : [
                1,
                3
            ],
            "name" : "Root"
        },
        {
            "children" : [
                4
            ],
            "name" : "Sketchfab_model"
        }
    ],
    "materials" : [
        {
            "doubleSided" : true,
            "name" : "Material.001",
            "pbrMetallicRoughness" : {
                "baseColorFactor" : [
                    0,
                    0.003814905881881714,
                    0.6400003433227539,
                    1
                ],
                "metallicFactor" : 0,
                "roughnessFactor" : 0.6000000238418579
            }
        },
        {
            "doubleSided" : true,
            "name" : "Material.002",
            "pbrMetallicRoughness" : {
                "baseColorFactor" : [
                    0.800000011920929,
                    0.800000011920929,
                    0.800000011920929,
                    1
                ],
                "metallicFactor" : 0,
                "roughnessFactor" : 0.5
            }
        },
        {
            "doubleSided" : true,
            "name" : "Material.003",
            "pbrMetallicRoughness" : {
                "baseColorFactor" : [
                    0.800000011920929,
                    0.800000011920929,
                    0.800000011920929,
                    1
                ],
                "metallicFactor" : 0,
                "roughnessFactor" : 0.5
            }
        },
        {
            "doubleSided" : true,
            "name" : "Material.004",
            "pbrMetallicRoughness" : {
                "baseColorFactor" : [
                    0,
                    0,
                    0,
                    1
                ],
                "metallicFactor" : 0,
                "roughnessFactor" : 0.5
            }
        }
    ],
    "meshes" : [
        {
            "name" : "Cube_0",
            "primitives" : [
                {
                    "attributes" : {
                        "POSITION" : 0,
                        "NORMAL" : 1,
                        "TEXCOORD_0" : 2
                    },
                    "indices" : 3,
                    "material" : 0
                },
                {
                    "attributes" : {
                        "POSITION" : 4,
                        "NORMAL" : 5,
                        "TEXCOORD_0" : 6
                    },
                    "indices" : 7,
                    "material" : 1
                },
                {
                    "attributes" : {
                        "POSITION" : 8,
                        "NORMAL" : 9,
                        "TEXCOORD_0" : 10
                    },
                    "indices" : 7,
                    "material" : 2
                },
                {
                    "attributes" : {
                        "POSITION" : 11,
                        "NORMAL" : 12,
                        "TEXCOORD_0" : 13
                    },
                    "indices" : 14,
                    "material" : 3
                }
            ]
        }
    ],
    "accessors" : [
        {
            "bufferView" : 0,
            "componentType" : 5126,
            "count" : 600,
            "max" : [
                1.425149917602539,
                2.7298104763031006,
                3.73714017868042
            ],
            "min" : [
                -1.4251501560211182,
                -2.376589775085449,
                -0.22084002196788788
            ],
            "type" : "VEC3"
        },
        {
            "bufferView" : 1,
            "componentType" : 5126,
            "count" : 600,
            "type" : "VEC3"
        },
        {
            "bufferView" : 2,
            "componentType" : 5126,
            "count" : 600,
            "type" : "VEC2"
        },
        {
            "bufferView" : 3,
            "componentType" : 5123,
            "count" : 600,
            "type" : "SCALAR"
        },
        {
            "bufferView" : 4,
            "componentType" : 5126,
            "count" : 559,
            "max" : [
                1.0802628993988037,
                1.0468086004257202,
                1.17672598361969
            ],
            "min" : [
                0.3221054971218109,
                0.2886507213115692,
                0.4185687005519867
            ],
            "type" : "VEC3"
        },
        {
            "bufferView" : 5,
            "componentType" : 5126,
            "count" : 559,
            "type" : "VEC3"
        },
        {
            "bufferView" : 6,
            "componentType" : 5126,
            "count" : 559,
            "type" : "VEC2"
        },
        {
            "bufferView" : 7,
            "componentType" : 5123,
            "count" : 2880,
            "type" : "SCALAR"
        },
        {
            "bufferView" : 8,
            "componentType" : 5126,
            "count" : 559,
            "max" : [
                -0.34978482127189636,
                1.0107172727584839,
                1.2049113512039185
            ],
            "min" : [
                -1.1079424619674683,
                0.2525593042373657,
                0.4467540681362152
            ],
            "type" : "VEC3"
        },
        {
            "bufferView" : 9,
            "componentType" : 5126,
            "count" : 559,
            "type" : "VEC3"
        },
        {
            "bufferView" : 10,
            "componentType" : 5126,
            "count" : 559,
            "type" : "VEC2"
        },
        {
            "bufferView" : 11,
            "componentType" : 5126,
            "count" : 1118,
            "max" : [
                0.9494503140449524,
                0.7509865164756775,
                0.6131166815757751
            ],
            "min" : [
                -1.0241506099700928,
                0.587162435054779,
                0.3943621814250946
            ],
            "type" : "VEC3"
        },
        {
            "bufferView" : 12,
            "componentType" : 5126,
            "count" : 1118,
            "type" : "VEC3"
        },
        {
            "bufferView" : 13,
            "componentType" : 5126,
            "count" : 1118,
            "type" : "VEC2"
        },
        {
            "bufferView" : 14,
            "componentType" : 5123,
            "count" : 5760,
            "type" : "SCALAR"
        }
    ],
    "bufferViews" : [
        {
            "buffer" : 0,
            "byteLength" : 7200,
            "byteOffset" : 0
        },
        {
            "buffer" : 0,
            "byteLength" : 7200,
            "byteOffset" : 7200
        },
        {
            "buffer" : 0,
            "byteLength" : 4800,
            "byteOffset" : 14400
        },
        {
            "buffer" : 0,
            "byteLength" : 1200,
            "byteOffset" : 19200
        },
        {
            "buffer" : 0,
            "byteLength" : 6708,
            "byteOffset" : 20400
        },
        {
            "buffer" : 0,
            "byteLength" : 6708,
            "byteOffset" : 27108
        },
        {
            "buffer" : 0,
            "byteLength" : 4472,
            "byteOffset" : 33816
        },
        {
            "buffer" : 0,
            "byteLength" : 5760,
            "byteOffset" : 38288
        },
        {
            "buffer" : 0,
            "byteLength" : 6708,
            "byteOffset" : 44048
        },
        {
            "buffer" : 0,
            "byteLength" : 6708,
            "byteOffset" : 50756
        },
        {
            "buffer" : 0,
            "byteLength" : 4472,
            "byteOffset" : 57464
        },
        {
            "buffer" : 0,
            "byteLength" : 13416,
            "byteOffset" : 61936
        },
        {
            "buffer" : 0,
            "byteLength" : 13416,
            "byteOffset" : 75352
        },
        {
            "buffer" : 0,
            "byteLength" : 8944,
            "byteOffset" : 88768
        },
        {
            "buffer" : 0,
            "byteLength" : 11520,
            "byteOffset" : 97712
        }
    ],
    "buffers" : [
        {
            "byteLength" : 109232,
            "uri" : "data:application/octet-stream;base64,"
        }
    ]
}
