{
    "asset" : {
        "generator" : "Khronos glTF Blender I/O v1.8.19",
        "version" : "2.0"
    },
    "scene" : 0,
    "scenes" : [
        {
            "name" : "Scene",
            "nodes" : [
                5
            ]
        }
    ],
    "nodes" : [
        {
            "mesh" : 0,
            "name" : "Cube_0"
        },
        {
            "children" : [
                0
            ],
            "name" : "Cube"
        },
        {
            "name" : "Spot.002"
        },
        {
            "children" : [
                2
            ],
            "name" : "Spot.001",
            "rotation" : [
                0.20881535112857819,
                -0.5494876503944397,
                0.8047191500663757,
                0.08298561722040176
            ],
            "scale" : [
                1,
                1,
                0.9999977350234985
            ],
            "translation" : [
                1.447029948234558,
                -14.823869705200195,
                4.127500057220459
            ]
        },
        {
            "children" : [
                1,
                3
            ],
            "name" : "Root"
        },
        {
            "children" : [
                4
            ],
            "name" : "Sketchfab_model",
            "rotation" : [
                -0.7071068286895752,
                0,
                0,
                0.7071068286895752
            ]
        }
    ],
    "materials" : [
        {
            "doubleSided" : true,
            "name" : "Material.001",
            "pbrMetallicRoughness" : {
                "baseColorFactor" : [
                    0,
                    0.003814905881881714,
                    0.6400003433227539,
                    1
                ],
                "metallicFactor" : 0,
                "roughnessFactor" : 0.6000000238418579
            }
        }
    ],
    "meshes" : [
        {
            "name" : "Cube_0",
            "primitives" : [
                {
                    "attributes" : {
                        "POSITION" : 0,
                        "NORMAL" : 1
                    },
                    "indices" : 2,
                    "material" : 0
                }
            ]
        }
    ],
    "accessors" : [
        {
            "bufferView" : 0,
            "componentType" : 5126,
            "count" : 444,
            "max" : [
                1.4251500368118286,
                3.737139940261841,
                2.7298099994659424
            ],
            "min" : [
                -1.4251500368118286,
                -0.22084000706672668,
                -2.3765900135040283
            ],
            "type" : "VEC3"
        },
        {
            "bufferView" : 1,
            "componentType" : 5126,
            "count" : 444,
            "type" : "VEC3"
        },
        {
            "bufferView" : 2,
            "componentType" : 5123,
            "count" : 600,
            "type" : "SCALAR"
        }
    ],
    "bufferViews" : [
        {
            "buffer" : 0,
            "byteLength" : 5328,
            "byteOffset" : 0
        },
        {
            "buffer" : 0,
            "byteLength" : 5328,
            "byteOffset" : 5328
        },
        {
            "buffer" : 0,
            "byteLength" : 1200,
            "byteOffset" : 10656
        }
    ],
    "buffers" : [
        {
            "byteLength" : 11856,
            "uri" : "data:application/octet-stream;base64,"
        }
    ]
}
